# xmcd CD database file
#
# Track frame offsets:
#	150
#	20557
#	38077
#	60575
#	85860
#	108445
#	123440
#	138407
#	155380
#	174012
#	191540
#
# Disc length: 2689 seconds
#
# Revision: 1
# Processed by: cddbd v1.4PL0 Copyright (c) Steve Scherf et al.
# Submitted via: CDex 1.40Release
#
DISCID=840a7f0b
DTITLE=Jimmy Wolf - Raw Blues
DYEAR=1999
DGENRE=Blues
TTITLE0=I'm Burning Hot, Like the Sun
TTITLE1=She Likes it Funky
TTITLE2=Rainbow Blues
TTITLE3=WASP Women
TTITLE4=Can't You See What You Are Doing to Me
TTITLE5=I Got the Wine
TTITLE6=Sugar Thang
TTITLE7=Drinking Dirty Water
TTITLE8=You're so Al
TTITLE9=Screaming And Crying
TTITLE10=The Joker
EXTD=YEAR: 1999 ID3G: 0
EXTT0=
EXTT1=
EXTT2=
EXTT3=
EXTT4=
EXTT5=
EXTT6=
EXTT7=
EXTT8=
EXTT9=
EXTT10=
PLAYORDER=
